<svg xmlns="http://www.w3.org/2000/svg" xmlns:xlink="http://www.w3.org/1999/xlink" id="Layer_1" x="0px" y="0px" width="359.982px" height="121.547px" viewBox="0 0 359.982 121.547" xml:space="preserve"><g>	<path fill="#D2272E" d="M315.199,114.433H5.962V8.006H351.83v69.795C351.83,98.034,335.431,114.433,315.199,114.433"/>	<path fill="#FFFFFF" d="M73.063,60.416c4.889-1.083,8.847-5.434,8.847-11.874c0-6.519-4.812-13.19-15.129-13.19H37.448v51.761  H67.71c10.162,0,15.208-6.522,15.208-14.046C82.918,66.545,78.574,61.271,73.063,60.416 M50.793,46.992h12.958  c2.718,0,4.577,1.55,4.577,4.035c0,2.561-1.859,4.036-4.577,4.036H50.793V46.992z M64.216,75.474H50.793v-8.771h13.423  c3.258,0,5.125,1.785,5.125,4.349C69.341,73.84,67.399,75.474,64.216,75.474"/>	<polygon fill="#FFFFFF" points="120.791,87.113 158.737,87.113 158.737,75.47 134.139,75.47 134.139,66.702 158.194,66.702   158.194,55.061 134.139,55.061 134.139,46.992 158.737,46.992 158.737,35.351 120.791,35.351  "/>	<path fill="#FFFFFF" d="M221.987,46.293c4.964,0,9.387,3.417,11.093,7.529l11.488-5.512c-3.336-6.751-10.091-13.812-22.581-13.812  c-15.909,0-28.013,10.789-28.013,26.771c0,15.911,12.104,26.774,28.013,26.774c12.49,0,19.245-7.295,22.581-13.889l-11.488-5.435  c-1.706,4.112-6.129,7.531-11.093,7.531c-8.46,0-14.436-6.519-14.436-14.981C207.551,52.733,213.527,46.293,221.987,46.293"/>	<path fill="#FFFFFF" d="M309.559,35.351v30.343c0,6.129-3.726,10.556-10.863,10.556c-7.22,0-10.942-4.427-10.942-10.556V35.351  h-13.58v30.808c0,12.73,7.916,21.888,24.522,21.888c16.603,0,24.366-9.079,24.366-21.963V35.351H309.559z"/>	<rect x="96.589" y="27.961" fill="#FFFFFF" width="4.984" height="66.518"/>	<rect x="176.406" y="27.961" fill="#FFFFFF" width="4.98" height="66.518"/>	<rect x="256.222" y="27.961" fill="#FFFFFF" width="4.978" height="66.518"/></g></svg>